screens;
 
http://baypic.net/img-519fba3d42452.html 
 
http://baypic.net/img-519fba3f1fb79.html 
 
http://baypic.net/img-519fba40df5b8.html 

Format : MPEG-4
Format profile : Base Media
Codec ID : isom
File size : 582 MiB
Duration : 7mn 40s
Overall bit rate : 10.6 Mbps
Writing application : Lavf55.3.100

Video
ID : 1
Format : AVC
Format/Info : Advanced Video Codec
Format profile : High@L4.1
Format settings, CABAC : Yes
Format settings, ReFrames : 5 frames
Codec ID : avc1
Codec ID/Info : Advanced Video Coding
Duration : 7mn 40s
Bit rate : 10 000 Kbps
Width : 1 280 pixels
Height : 720 pixels
Display aspect ratio : 16:9
Frame rate mode : Constant
Frame rate : 29.970 fps
Color space : YUV
Chroma subsampling : 4:2:0
Bit depth : 8 bits
Scan type : Progressive
Bits/(Pixel*Frame) : 0.362
Stream size : 552 MiB (95%)
Writing library : x264 core 132 r2309 3b1f1f7
Tagged date : UTC 2013-05-13 13:32:31

Audio
ID : 2
Format : AAC
Format/Info : Advanced Audio Codec
Format profile : LC
Codec ID : 40
Duration : 7mn 40s
Duration_LastFrame : -17ms
Bit rate mode : Constant
Bit rate : 128 Kbps
Channel(s) : 2 channels
Channel positions : Front: L R
Sampling rate : 48.0 KHz
Compression mode : Lossy
Stream size : 7.03 MiB (1%)
